<mxfile host="Electron" modified="2024-07-25T09:00:09.856Z" agent="Mozilla/5.0 (Windows NT 10.0; Win64; x64) AppleWebKit/537.36 (KHTML, like Gecko) draw.io/21.6.1 Chrome/112.0.5615.204 Electron/24.6.1 Safari/537.36" etag="0fMFxvzwWarAnHF7m4H4" version="21.6.1" type="device">
  <diagram name="第 1 页" id="56AqnG4KWg7CC04EKh2M">
    <mxGraphModel dx="2544" dy="1011" grid="1" gridSize="10" guides="1" tooltips="1" connect="1" arrows="1" fold="1" page="1" pageScale="1" pageWidth="1169" pageHeight="827" math="0" shadow="0">
      <root>
        <mxCell id="0" />
        <mxCell id="1" parent="0" />
        <mxCell id="l0_PR2QTMXm8nSv0k1bN-1" value="Track -- ReactiveEffect" style="text;html=1;strokeColor=none;fillColor=none;align=center;verticalAlign=middle;whiteSpace=wrap;rounded=0;fontSize=26;fontStyle=1" parent="1" vertex="1">
          <mxGeometry x="-1120" y="40" width="320" height="80" as="geometry" />
        </mxCell>
        <mxCell id="xqU70kahCglhwrN_-dCb-1" value="开始" style="rounded=1;whiteSpace=wrap;html=1;fontSize=16;" vertex="1" parent="1">
          <mxGeometry x="280" y="60" width="120" height="40" as="geometry" />
        </mxCell>
        <mxCell id="xqU70kahCglhwrN_-dCb-2" value="&lt;div style=&quot;font-family: Consolas, &amp;quot;Courier New&amp;quot;, monospace; line-height: 27px;&quot;&gt;&lt;span style=&quot;background-color: rgb(255, 255, 255);&quot;&gt;track(target: object, type: TrackOpTypes, key: unknown)&lt;/span&gt;&lt;/div&gt;" style="rounded=1;whiteSpace=wrap;html=1;fontSize=16;" vertex="1" parent="1">
          <mxGeometry x="210" y="140" width="260" height="80" as="geometry" />
        </mxCell>
        <mxCell id="xqU70kahCglhwrN_-dCb-3" value="" style="endArrow=classic;html=1;rounded=0;exitX=0.5;exitY=1;exitDx=0;exitDy=0;" edge="1" parent="1" source="xqU70kahCglhwrN_-dCb-1" target="xqU70kahCglhwrN_-dCb-2">
          <mxGeometry width="50" height="50" relative="1" as="geometry">
            <mxPoint x="550" y="150" as="sourcePoint" />
            <mxPoint x="600" y="100" as="targetPoint" />
          </mxGeometry>
        </mxCell>
        <mxCell id="xqU70kahCglhwrN_-dCb-4" value="判断shouldTrack&lt;span style=&quot;font-family: Consolas, &amp;quot;Courier New&amp;quot;, monospace; font-size: 20px; background-color: rgb(255, 255, 255);&quot;&gt; &lt;/span&gt;&lt;span style=&quot;font-family: Consolas, &amp;quot;Courier New&amp;quot;, monospace;&quot;&gt;&lt;font style=&quot;font-size: 16px;&quot;&gt;&amp;amp;&amp;amp;&lt;/font&gt;&lt;/span&gt;&lt;span style=&quot;font-family: Consolas, &amp;quot;Courier New&amp;quot;, monospace; font-size: 20px; background-color: rgb(255, 255, 255);&quot;&gt;&lt;font color=&quot;#ffffff&quot;&gt; &lt;/font&gt;&lt;/span&gt;&lt;span style=&quot;font-family: Consolas, &amp;quot;Courier New&amp;quot;, monospace;&quot;&gt;&lt;font style=&quot;font-size: 16px;&quot;&gt;activeEffect&lt;/font&gt;&lt;br&gt;&lt;span style=&quot;font-size: 20px;&quot;&gt;是否成立&lt;/span&gt;&lt;/span&gt;" style="rhombus;whiteSpace=wrap;html=1;fontSize=16;" vertex="1" parent="1">
          <mxGeometry x="180" y="280" width="320" height="80" as="geometry" />
        </mxCell>
        <mxCell id="xqU70kahCglhwrN_-dCb-5" value="" style="endArrow=classic;html=1;rounded=0;exitX=0.5;exitY=1;exitDx=0;exitDy=0;entryX=0.5;entryY=0;entryDx=0;entryDy=0;" edge="1" parent="1" source="xqU70kahCglhwrN_-dCb-2" target="xqU70kahCglhwrN_-dCb-4">
          <mxGeometry width="50" height="50" relative="1" as="geometry">
            <mxPoint x="600" y="320" as="sourcePoint" />
            <mxPoint x="650" y="270" as="targetPoint" />
          </mxGeometry>
        </mxCell>
        <mxCell id="xqU70kahCglhwrN_-dCb-6" value="结束" style="rounded=1;whiteSpace=wrap;html=1;fontSize=16;" vertex="1" parent="1">
          <mxGeometry x="280" y="1290" width="120" height="40" as="geometry" />
        </mxCell>
        <mxCell id="xqU70kahCglhwrN_-dCb-8" value="" style="endArrow=classic;html=1;rounded=0;exitX=0;exitY=0.5;exitDx=0;exitDy=0;entryX=0;entryY=0.5;entryDx=0;entryDy=0;" edge="1" parent="1" source="xqU70kahCglhwrN_-dCb-4" target="xqU70kahCglhwrN_-dCb-6">
          <mxGeometry width="50" height="50" relative="1" as="geometry">
            <mxPoint x="60" y="850" as="sourcePoint" />
            <mxPoint x="110" y="800" as="targetPoint" />
            <Array as="points">
              <mxPoint y="320" />
              <mxPoint y="1310" />
            </Array>
          </mxGeometry>
        </mxCell>
        <mxCell id="xqU70kahCglhwrN_-dCb-9" value="N" style="edgeLabel;html=1;align=center;verticalAlign=middle;resizable=0;points=[];fontSize=16;" vertex="1" connectable="0" parent="xqU70kahCglhwrN_-dCb-8">
          <mxGeometry x="-0.2462" y="-2" relative="1" as="geometry">
            <mxPoint as="offset" />
          </mxGeometry>
        </mxCell>
        <mxCell id="xqU70kahCglhwrN_-dCb-10" value="&lt;div style=&quot;font-family: Consolas, &amp;quot;Courier New&amp;quot;, monospace; line-height: 27px;&quot;&gt;&lt;div style=&quot;line-height: 27px;&quot;&gt;&lt;span style=&quot;background-color: rgb(255, 255, 255);&quot;&gt;&lt;font style=&quot;font-size: 16px;&quot;&gt;let depsMap = targetMap.get(target)&lt;/font&gt;&lt;/span&gt;&lt;/div&gt;&lt;/div&gt;" style="rounded=1;whiteSpace=wrap;html=1;fontSize=16;" vertex="1" parent="1">
          <mxGeometry x="210" y="420" width="260" height="80" as="geometry" />
        </mxCell>
        <mxCell id="xqU70kahCglhwrN_-dCb-11" value="" style="endArrow=classic;html=1;rounded=0;exitX=0.5;exitY=1;exitDx=0;exitDy=0;" edge="1" parent="1" source="xqU70kahCglhwrN_-dCb-4" target="xqU70kahCglhwrN_-dCb-10">
          <mxGeometry width="50" height="50" relative="1" as="geometry">
            <mxPoint x="620" y="320" as="sourcePoint" />
            <mxPoint x="670" y="270" as="targetPoint" />
          </mxGeometry>
        </mxCell>
        <mxCell id="xqU70kahCglhwrN_-dCb-13" value="Y" style="edgeLabel;html=1;align=center;verticalAlign=middle;resizable=0;points=[];fontSize=16;" vertex="1" connectable="0" parent="xqU70kahCglhwrN_-dCb-11">
          <mxGeometry x="-0.0417" relative="1" as="geometry">
            <mxPoint as="offset" />
          </mxGeometry>
        </mxCell>
        <mxCell id="xqU70kahCglhwrN_-dCb-12" value="判断depsMap 是否存在" style="rhombus;whiteSpace=wrap;html=1;fontSize=16;" vertex="1" parent="1">
          <mxGeometry x="180" y="560" width="320" height="80" as="geometry" />
        </mxCell>
        <mxCell id="xqU70kahCglhwrN_-dCb-14" value="" style="endArrow=classic;html=1;rounded=0;exitX=0.5;exitY=1;exitDx=0;exitDy=0;entryX=0.5;entryY=0;entryDx=0;entryDy=0;" edge="1" parent="1" source="xqU70kahCglhwrN_-dCb-10" target="xqU70kahCglhwrN_-dCb-12">
          <mxGeometry width="50" height="50" relative="1" as="geometry">
            <mxPoint x="500" y="600" as="sourcePoint" />
            <mxPoint x="550" y="550" as="targetPoint" />
          </mxGeometry>
        </mxCell>
        <mxCell id="xqU70kahCglhwrN_-dCb-15" value="&lt;div style=&quot;font-family: Consolas, &amp;quot;Courier New&amp;quot;, monospace; line-height: 27px;&quot;&gt;&lt;div style=&quot;line-height: 27px;&quot;&gt;trackEffect(&lt;span style=&quot;background-color: rgb(255, 255, 255);&quot;&gt;activeEffect,&lt;/span&gt;&lt;span style=&quot;background-color: rgb(255, 255, 255);&quot;&gt;&amp;nbsp;dep,&lt;/span&gt;&lt;/div&gt;&lt;div style=&quot;line-height: 27px;&quot;&gt;&lt;span style=&quot;background-color: rgb(255, 255, 255);&quot;&gt;__DEV__&lt;/span&gt;&lt;span style=&quot;background-color: rgb(255, 255, 255);&quot;&gt;? {&amp;nbsp;&lt;/span&gt;&lt;span style=&quot;background-color: rgb(255, 255, 255);&quot;&gt;target,&lt;/span&gt;&lt;/div&gt;&lt;div style=&quot;line-height: 27px;&quot;&gt;&lt;div&gt;&lt;span style=&quot;background-color: rgb(255, 255, 255);&quot;&gt;&amp;nbsp; &amp;nbsp; &amp;nbsp; &amp;nbsp; &amp;nbsp;type,&lt;/span&gt;&lt;/div&gt;&lt;div&gt;&lt;span style=&quot;background-color: rgb(255, 255, 255);&quot;&gt;&amp;nbsp; &amp;nbsp; &amp;nbsp; &amp;nbsp; key,&lt;/span&gt;&lt;/div&gt;&lt;div&gt;&lt;span style=&quot;background-color: rgb(255, 255, 255);&quot;&gt;&amp;nbsp; }&lt;/span&gt;&lt;/div&gt;&lt;/div&gt;&lt;div style=&quot;line-height: 27px;&quot;&gt;&lt;span style=&quot;background-color: rgb(255, 255, 255);&quot;&gt;&amp;nbsp; &amp;nbsp; &amp;nbsp; &amp;nbsp;: void 0,)&lt;/span&gt;&lt;/div&gt;&lt;/div&gt;" style="rounded=1;whiteSpace=wrap;html=1;fontSize=16;arcSize=9;" vertex="1" parent="1">
          <mxGeometry x="145" y="1030" width="390" height="180" as="geometry" />
        </mxCell>
        <mxCell id="xqU70kahCglhwrN_-dCb-16" value="" style="endArrow=classic;html=1;rounded=0;exitX=0.5;exitY=1;exitDx=0;exitDy=0;entryX=0.5;entryY=0;entryDx=0;entryDy=0;" edge="1" parent="1" source="xqU70kahCglhwrN_-dCb-12" target="xqU70kahCglhwrN_-dCb-21">
          <mxGeometry width="50" height="50" relative="1" as="geometry">
            <mxPoint x="620" y="720" as="sourcePoint" />
            <mxPoint x="670" y="670" as="targetPoint" />
          </mxGeometry>
        </mxCell>
        <mxCell id="xqU70kahCglhwrN_-dCb-20" value="Y" style="edgeLabel;html=1;align=center;verticalAlign=middle;resizable=0;points=[];fontSize=16;" vertex="1" connectable="0" parent="xqU70kahCglhwrN_-dCb-16">
          <mxGeometry x="-0.2188" y="-1" relative="1" as="geometry">
            <mxPoint as="offset" />
          </mxGeometry>
        </mxCell>
        <mxCell id="xqU70kahCglhwrN_-dCb-17" value="&lt;div style=&quot;font-family: Consolas, &amp;quot;Courier New&amp;quot;, monospace; line-height: 27px;&quot;&gt;&lt;div style=&quot;line-height: 27px;&quot;&gt;&lt;div style=&quot;line-height: 27px;&quot;&gt;&lt;span style=&quot;background-color: rgb(255, 255, 255);&quot;&gt;&lt;font style=&quot;font-size: 16px;&quot;&gt;targetMap.set(target, (depsMap = new Map()))&lt;/font&gt;&lt;/span&gt;&lt;/div&gt;&lt;/div&gt;&lt;/div&gt;" style="rounded=1;whiteSpace=wrap;html=1;fontSize=16;" vertex="1" parent="1">
          <mxGeometry x="585" y="560" width="295" height="80" as="geometry" />
        </mxCell>
        <mxCell id="xqU70kahCglhwrN_-dCb-18" value="" style="endArrow=classic;html=1;rounded=0;exitX=1;exitY=0.5;exitDx=0;exitDy=0;entryX=0;entryY=0.5;entryDx=0;entryDy=0;" edge="1" parent="1" source="xqU70kahCglhwrN_-dCb-12" target="xqU70kahCglhwrN_-dCb-17">
          <mxGeometry width="50" height="50" relative="1" as="geometry">
            <mxPoint x="530" y="510" as="sourcePoint" />
            <mxPoint x="580" y="460" as="targetPoint" />
          </mxGeometry>
        </mxCell>
        <mxCell id="xqU70kahCglhwrN_-dCb-19" value="N" style="edgeLabel;html=1;align=center;verticalAlign=middle;resizable=0;points=[];fontSize=16;" vertex="1" connectable="0" parent="xqU70kahCglhwrN_-dCb-18">
          <mxGeometry x="-0.1657" y="-1" relative="1" as="geometry">
            <mxPoint as="offset" />
          </mxGeometry>
        </mxCell>
        <mxCell id="xqU70kahCglhwrN_-dCb-21" value="&lt;div style=&quot;font-family: Consolas, &amp;quot;Courier New&amp;quot;, monospace; line-height: 27px;&quot;&gt;&lt;div style=&quot;line-height: 27px;&quot;&gt;let dep&lt;/div&gt;&lt;div style=&quot;line-height: 27px;&quot;&gt;=&amp;nbsp;&lt;span style=&quot;background-color: rgb(255, 255, 255);&quot;&gt;depsMap&lt;/span&gt;&lt;span style=&quot;background-color: rgb(255, 255, 255);&quot;&gt;.get(key)&lt;/span&gt;&lt;/div&gt;&lt;/div&gt;" style="rounded=1;whiteSpace=wrap;html=1;fontSize=16;" vertex="1" parent="1">
          <mxGeometry x="210" y="720" width="260" height="80" as="geometry" />
        </mxCell>
        <mxCell id="xqU70kahCglhwrN_-dCb-22" value="判断dep 是否存在" style="rhombus;whiteSpace=wrap;html=1;fontSize=16;" vertex="1" parent="1">
          <mxGeometry x="180" y="870" width="320" height="80" as="geometry" />
        </mxCell>
        <mxCell id="xqU70kahCglhwrN_-dCb-23" value="" style="endArrow=classic;html=1;rounded=0;exitX=0.5;exitY=1;exitDx=0;exitDy=0;entryX=0.5;entryY=0;entryDx=0;entryDy=0;" edge="1" parent="1" source="xqU70kahCglhwrN_-dCb-21" target="xqU70kahCglhwrN_-dCb-22">
          <mxGeometry width="50" height="50" relative="1" as="geometry">
            <mxPoint x="580" y="800" as="sourcePoint" />
            <mxPoint x="580" y="840" as="targetPoint" />
          </mxGeometry>
        </mxCell>
        <mxCell id="xqU70kahCglhwrN_-dCb-24" value="" style="endArrow=classic;html=1;rounded=0;exitX=0.5;exitY=1;exitDx=0;exitDy=0;" edge="1" parent="1" source="xqU70kahCglhwrN_-dCb-22" target="xqU70kahCglhwrN_-dCb-15">
          <mxGeometry width="50" height="50" relative="1" as="geometry">
            <mxPoint x="510" y="920" as="sourcePoint" />
            <mxPoint x="510" y="960" as="targetPoint" />
          </mxGeometry>
        </mxCell>
        <mxCell id="xqU70kahCglhwrN_-dCb-25" value="" style="endArrow=classic;html=1;rounded=0;exitX=1;exitY=0.5;exitDx=0;exitDy=0;entryX=1;entryY=0.5;entryDx=0;entryDy=0;" edge="1" parent="1" source="xqU70kahCglhwrN_-dCb-17" target="xqU70kahCglhwrN_-dCb-21">
          <mxGeometry width="50" height="50" relative="1" as="geometry">
            <mxPoint x="880" y="830" as="sourcePoint" />
            <mxPoint x="930" y="780" as="targetPoint" />
            <Array as="points">
              <mxPoint x="940" y="600" />
              <mxPoint x="940" y="760" />
            </Array>
          </mxGeometry>
        </mxCell>
        <mxCell id="xqU70kahCglhwrN_-dCb-26" value="&lt;div style=&quot;font-family: Consolas, &amp;quot;Courier New&amp;quot;, monospace; line-height: 27px;&quot;&gt;&lt;div style=&quot;line-height: 27px;&quot;&gt;&lt;div style=&quot;line-height: 27px;&quot;&gt;&lt;span style=&quot;background-color: rgb(255, 255, 255);&quot;&gt;&lt;font style=&quot;font-size: 16px;&quot;&gt;targetMap.set(target, (depsMap = new Map()))&lt;/font&gt;&lt;/span&gt;&lt;/div&gt;&lt;/div&gt;&lt;/div&gt;" style="rounded=1;whiteSpace=wrap;html=1;fontSize=16;" vertex="1" parent="1">
          <mxGeometry x="585" y="870" width="295" height="80" as="geometry" />
        </mxCell>
        <mxCell id="xqU70kahCglhwrN_-dCb-27" value="" style="endArrow=classic;html=1;rounded=0;exitX=1;exitY=0.5;exitDx=0;exitDy=0;" edge="1" parent="1" source="xqU70kahCglhwrN_-dCb-22" target="xqU70kahCglhwrN_-dCb-26">
          <mxGeometry width="50" height="50" relative="1" as="geometry">
            <mxPoint x="490" y="870" as="sourcePoint" />
            <mxPoint x="575" y="870" as="targetPoint" />
          </mxGeometry>
        </mxCell>
        <mxCell id="xqU70kahCglhwrN_-dCb-28" value="N" style="edgeLabel;html=1;align=center;verticalAlign=middle;resizable=0;points=[];fontSize=16;" vertex="1" connectable="0" parent="xqU70kahCglhwrN_-dCb-27">
          <mxGeometry x="-0.1657" y="-1" relative="1" as="geometry">
            <mxPoint as="offset" />
          </mxGeometry>
        </mxCell>
        <mxCell id="xqU70kahCglhwrN_-dCb-29" value="" style="endArrow=classic;html=1;rounded=0;exitX=1;exitY=0.5;exitDx=0;exitDy=0;entryX=1;entryY=0.5;entryDx=0;entryDy=0;" edge="1" parent="1" source="xqU70kahCglhwrN_-dCb-26" target="xqU70kahCglhwrN_-dCb-15">
          <mxGeometry width="50" height="50" relative="1" as="geometry">
            <mxPoint x="995" y="640" as="sourcePoint" />
            <mxPoint x="650" y="1210" as="targetPoint" />
            <Array as="points">
              <mxPoint x="940" y="910" />
              <mxPoint x="940" y="1120" />
            </Array>
          </mxGeometry>
        </mxCell>
        <mxCell id="xqU70kahCglhwrN_-dCb-30" value="" style="endArrow=classic;html=1;rounded=0;exitX=0.5;exitY=1;exitDx=0;exitDy=0;entryX=0.5;entryY=0;entryDx=0;entryDy=0;" edge="1" parent="1" source="xqU70kahCglhwrN_-dCb-15" target="xqU70kahCglhwrN_-dCb-6">
          <mxGeometry width="50" height="50" relative="1" as="geometry">
            <mxPoint x="530" y="1350" as="sourcePoint" />
            <mxPoint x="580" y="1300" as="targetPoint" />
          </mxGeometry>
        </mxCell>
        <mxCell id="xqU70kahCglhwrN_-dCb-31" value="&lt;b&gt;问题记录：&lt;/b&gt;&lt;br&gt;1. 为啥需要判断shouldTack &amp;amp;&amp;amp; activeEffect？" style="text;html=1;strokeColor=none;fillColor=none;align=left;verticalAlign=top;whiteSpace=wrap;rounded=0;fontSize=16;" vertex="1" parent="1">
          <mxGeometry x="-560" y="120" width="360" height="360" as="geometry" />
        </mxCell>
        <mxCell id="xqU70kahCglhwrN_-dCb-32" value="&lt;b&gt;Note：&lt;/b&gt;&lt;br&gt;1. 响应式基本原理：对象的读取/设置等操作发生时，进行拦截从而触发更新。&lt;br&gt;&lt;span style=&quot;white-space: pre;&quot;&gt;&#x9;&lt;/span&gt;- 实现方式：&lt;br&gt;&lt;span style=&quot;white-space: pre;&quot;&gt;&#x9;&lt;/span&gt;&lt;span style=&quot;white-space: pre;&quot;&gt;&#x9;&lt;/span&gt;收集对象以及属性 --&amp;gt; 哪个对象哪个属性（who）？&lt;br&gt;&lt;span style=&quot;white-space: pre;&quot;&gt;&#x9;&lt;/span&gt;&lt;span style=&quot;white-space: pre;&quot;&gt;&#x9;&lt;/span&gt;收集依赖 --&amp;gt; 需要触发的动作（what）?&amp;nbsp;" style="text;html=1;strokeColor=none;fillColor=none;align=left;verticalAlign=top;whiteSpace=wrap;rounded=0;fontSize=16;" vertex="1" parent="1">
          <mxGeometry x="-1120" y="120" width="520" height="370" as="geometry" />
        </mxCell>
      </root>
    </mxGraphModel>
  </diagram>
</mxfile>
